<?xml version="1.0" encoding="UTF-8" standalone="no"?>
<svg
   viewBox="0 0 40 32"
   x="0px"
   y="0px"
   version="1.1"
   id="svg18"
   sodipodi:docname="pizza.svg"
   width="40"
   height="32"
   inkscape:version="1.1 (c68e22c387, 2021-05-23)"
   xmlns:inkscape="http://www.inkscape.org/namespaces/inkscape"
   xmlns:sodipodi="http://sodipodi.sourceforge.net/DTD/sodipodi-0.dtd"
   xmlns:xlink="http://www.w3.org/1999/xlink"
   xmlns="http://www.w3.org/2000/svg"
   xmlns:svg="http://www.w3.org/2000/svg"
   xmlns:rdf="http://www.w3.org/1999/02/22-rdf-syntax-ns#"
   xmlns:cc="http://creativecommons.org/ns#"
   xmlns:dc="http://purl.org/dc/elements/1.1/">
  <defs
     id="defs22">
    <color-profile
       name="Agfa-:-Swop-Standard"
       xlink:href="../../../WINDOWS/system32/spool/drivers/color/RSWOP.icm"
       id="color-profile1452" />
  </defs>
  <sodipodi:namedview
     id="namedview20"
     pagecolor="#505050"
     bordercolor="#eeeeee"
     borderopacity="1"
     inkscape:pageshadow="0"
     inkscape:pageopacity="0"
     inkscape:pagecheckerboard="0"
     showgrid="false"
     inkscape:zoom="19.55"
     inkscape:cx="16.01023"
     inkscape:cy="17.007673"
     inkscape:window-width="1920"
     inkscape:window-height="986"
     inkscape:window-x="-11"
     inkscape:window-y="-11"
     inkscape:window-maximized="1"
     inkscape:current-layer="svg18" />
  <title
     id="title2">Artboard 2</title>
  <g
     data-name="Layer 18"
     id="g12"
     transform="matrix(0,-1,1.0989257,0,2.5363568,31.986748)">
    <path
       d="M 16,31 C 6.76,31 1.59,27 1.38,26.78 A 1,1 0 0 1 1.14,25.5 l 3.6,-6.17 A 1,1 0 0 1 6,18.9 1.35,1.35 0 0 0 6.53,19 1.5,1.5 0 0 0 8,17.5 1.48,1.48 0 0 0 7.46,16.34 1,1 0 0 1 7.22,15.07 L 15.14,1.5 a 1,1 0 0 1 1.72,0 l 2.75,4.71 a 1,1 0 0 1 -0.15,1.21 1.5,1.5 0 0 0 1,2.58 1.48,1.48 0 0 0 0.39,-0.05 1,1 0 0 1 1.16,0.45 l 8.81,15.1 a 1,1 0 0 1 -0.23,1.28 C 30.41,27 25.24,31 16,31 Z M 3.33,25.7 A 24.12,24.12 0 0 0 16,29 24.19,24.19 0 0 0 28.67,25.7 L 20.67,12 H 20.5 a 3.5,3.5 0 0 1 -3,-5.37 L 16,4 9.33,15.43 A 3.51,3.51 0 0 1 6.5,21 H 6.09 Z"
       id="path4" />
    <path
       d="M 16,27 A 27.58,27.58 0 0 1 3.55,23.9 l 0.9,-1.78 a 24.66,24.66 0 0 0 23.1,0 l 0.9,1.78 A 27.58,27.58 0 0 1 16,27 Z"
       id="path6" />
    <path
       d="m 15,19 a 4,4 0 1 1 4,-4 4,4 0 0 1 -4,4 z m 0,-6 a 2,2 0 1 0 2,2 2,2 0 0 0 -2,-2 z"
       id="path8" />
    <path
       d="M 20.5,23 A 2.5,2.5 0 1 1 23,20.5 2.5,2.5 0 0 1 20.5,23 Z m 0,-3 A 0.5,0.5 0 1 0 21,20.5 0.5,0.5 0 0 0 20.5,20 Z"
       id="path10" />
  </g>
  <metadata
     id="metadata839">
    <rdf:RDF>
      <cc:Work
         rdf:about="">
        <dc:title>Artboard 2</dc:title>
      </cc:Work>
    </rdf:RDF>
  </metadata>
  <path
     style="fill:#2d1f17;fill-rule:evenodd;stroke:#2d1f17;stroke-width:0.154661;stroke-linecap:round;stroke-linejoin:round"
     d="m 30.199151,30.641977 c -0.320531,-0.167372 -1.938313,-1.024789 -3.595072,-1.90537 -3.355496,-1.783475 -3.302335,-1.747497 -3.345159,-2.263901 -0.01553,-0.187251 0.0043,-0.348978 0.05969,-0.487472 0.129135,-0.32274 0.108665,-0.798407 -0.04788,-1.112548 -0.267813,-0.537432 -0.757604,-0.836016 -1.429298,-0.871323 -0.533412,-0.02804 -0.862065,0.09132 -1.303117,0.473275 -0.383061,0.331731 -0.570483,0.402789 -0.990945,0.3757 -0.293773,-0.01893 -0.429938,-0.08164 -2.053764,-0.945815 C 16.537084,23.395474 13.141944,21.593299 9.9488491,19.899689 3.6235439,16.544763 3.7527525,16.621984 3.682685,16.15474 c -0.0489,-0.326085 0.041316,-0.601357 0.2676041,-0.816534 0.1217414,-0.115764 1.1829185,-0.708588 2.8758358,-1.606581 2.3302239,-1.236046 2.7182229,-1.42605 2.9515933,-1.445403 0.4111838,-0.0341 0.5909078,0.02151 0.9671458,0.299243 0.428833,0.316558 0.783109,0.428397 1.251,0.39492 0.606245,-0.04338 1.129141,-0.371434 1.38953,-0.871769 0.122442,-0.235271 0.149087,-0.660639 0.07148,-1.1411 -0.05263,-0.325838 0.07867,-0.65983 0.335002,-0.852136 0.283152,-0.2124291 16.828715,-8.9743621 17.068373,-9.0387949 0.168156,-0.045209 0.290221,-0.045027 0.511509,7.622e-4 0.261397,0.054089 0.326767,0.096849 0.649569,0.4249009 0.633163,0.6434598 1.64445,2.2763337 2.309501,3.7290321 1.18728,2.5934281 1.863901,5.2389947 2.174628,8.5027347 0.09567,1.004834 0.08021,3.694706 -0.02749,4.782609 -0.293454,2.964439 -0.937542,5.494348 -2.024993,7.953964 -0.553047,1.250892 -1.303274,2.576025 -1.965029,3.470851 -0.622986,0.842402 -0.844241,1.001753 -1.393654,1.003729 -0.283113,0.001 -0.36692,-0.02737 -0.895141,-0.303191 z m 0.957067,-2.572923 c 0.191257,-0.316496 0.557609,-0.98977 0.814116,-1.496164 1.191354,-2.351959 1.915434,-4.683322 2.279718,-7.340153 0.154523,-1.126979 0.198301,-4.420241 0.07591,-5.710039 -0.261827,-2.759103 -0.998786,-5.3615737 -2.228749,-7.8705241 -0.360128,-0.7346107 -1.179576,-2.1940466 -1.298939,-2.31341 -0.03656,-0.036563 -1.616684,0.8037563 -1.616684,0.8597636 0,0.026713 0.134947,0.3186763 0.299883,0.6488064 1.409224,2.8206574 2.255599,5.7381061 2.587912,8.9205141 0.450301,4.312325 -0.480276,9.144842 -2.561707,13.303033 -0.179349,0.358294 -0.326088,0.673209 -0.326088,0.699812 0,0.04279 1.509163,0.869083 1.593498,0.872468 0.01837,7.37e-4 0.189878,-0.257611 0.381134,-0.574107 z m -2.934041,-3.286445 c 0.817193,-1.924792 1.374329,-4.063894 1.658641,-6.368287 0.130183,-1.055147 0.130183,-3.804188 0,-4.859335 C 29.531267,10.72182 28.773843,8.164355 27.590785,5.8226174 L 27.263427,5.1746466 26.265985,5.7046048 c -0.548594,0.291477 -3.137434,1.6672883 -5.752978,3.0573589 l -4.755535,2.5274003 -0.06227,0.495861 c -0.07503,0.597484 -0.12414,0.759395 -0.382702,1.261876 -0.614343,1.193892 -1.921467,1.944579 -3.394337,1.949381 -0.670556,0.0022 -1.149274,-0.09111 -1.706427,-0.332552 L 9.8048061,14.487587 8.3680417,15.232024 c -0.7902203,0.40944 -1.4279517,0.753249 -1.4171807,0.76402 0.010771,0.01077 2.8331789,1.51369 6.272017,3.339818 l 6.252434,3.320235 0.466948,-0.226486 c 1.006507,-0.488193 2.109948,-0.559097 3.157272,-0.20288 1.505248,0.511968 2.493864,1.825278 2.501552,3.323141 l 0.0018,0.358056 0.830252,0.442772 0.830253,0.442772 0.327358,-0.647375 c 0.180048,-0.356057 0.464175,-0.969626 0.631393,-1.363488 z"
     id="path1335" />
  <path
     style="fill:#2d1f17;fill-rule:evenodd;stroke:#2d1f17;stroke-width:0.154661;stroke-linecap:round;stroke-linejoin:round"
     d="m 18.388747,20.941255 c -1.151163,-0.212027 -1.89168,-0.579634 -2.612931,-1.297107 -0.714463,-0.710721 -1.068281,-1.504938 -1.109643,-2.490817 -0.02949,-0.702835 0.06169,-1.16144 0.349027,-1.755622 0.541523,-1.119801 1.531101,-1.90776 2.836462,-2.258556 0.632745,-0.170041 1.715586,-0.160183 2.395752,0.02181 1.461375,0.391022 2.587298,1.437869 3.009478,2.798116 0.171182,0.551543 0.170849,1.49657 -7.22e-4,2.046036 -0.347213,1.111978 -1.049523,1.922327 -2.130851,2.458648 -0.688961,0.341713 -1.172585,0.460306 -1.969309,0.482907 -0.351663,0.01 -0.696931,0.0075 -0.767264,-0.0054 z m 1.26086,-2.035625 c 0.589944,-0.157078 1.149346,-0.611035 1.393788,-1.131061 0.239276,-0.509039 0.217724,-1.159586 -0.05539,-1.672004 -0.570712,-1.070766 -2.064185,-1.443878 -3.174632,-0.793112 -0.271457,0.159084 -0.65959,0.566853 -0.794008,0.834177 -0.549246,1.092314 0.06546,2.355527 1.343808,2.761527 0.273889,0.08699 0.960568,0.08724 1.286436,4.6e-4 z"
     id="path1374" />
  <path
     style="fill:#2d1f17;fill-rule:evenodd;stroke:#2d1f17;stroke-width:0.154661;stroke-linecap:round;stroke-linejoin:round"
     d="m 24.450128,13.912027 c -0.533885,-0.106875 -1.160696,-0.459475 -1.497996,-0.842668 -0.857731,-0.974434 -0.819467,-2.332298 0.0915,-3.2470606 1.468477,-1.4745933 4.173509,-0.8384679 4.67847,1.1002056 0.33557,1.288342 -0.518936,2.592141 -1.941776,2.962743 -0.318224,0.08289 -0.983059,0.09627 -1.330198,0.02678 z m 1.031208,-2.103865 c 0.17859,-0.167776 0.165124,-0.466246 -0.02983,-0.661202 -0.12242,-0.122419 -0.192661,-0.149518 -0.387566,-0.149518 -0.194905,0 -0.265147,0.0271 -0.387567,0.149518 -0.500058,0.500059 0.287711,1.147137 0.804963,0.661202 z"
     id="path1413" />
</svg>
